<mxfile host="65bd71144e">
    <diagram id="HWN8LB-xHzLTgMJsBf7P" name="Page-1">
        <mxGraphModel dx="1027" dy="506" grid="0" gridSize="10" guides="0" tooltips="1" connect="0" arrows="0" fold="1" page="1" pageScale="1" pageWidth="850" pageHeight="1100" background="#E6E6E6" math="0" shadow="0">
            <root>
                <mxCell id="0"/>
                <mxCell id="1" parent="0"/>
            </root>
        </mxGraphModel>
    </diagram>
</mxfile>